<mxfile host="65bd71144e">
    <diagram id="xpTfQwLlDye6NHtaUpQL" name="Pagina-1">
        <mxGraphModel dx="1039" dy="493" grid="1" gridSize="8" guides="1" tooltips="1" connect="1" arrows="1" fold="1" page="1" pageScale="1" pageWidth="827" pageHeight="1169" background="#ffffff" math="0" shadow="0">
            <root>
                <mxCell id="0"/>
                <mxCell id="1" parent="0"/>
                <mxCell id="6" style="edgeStyle=orthogonalEdgeStyle;orthogonalLoop=1;jettySize=auto;html=1;strokeColor=#000000;" parent="1" source="2" edge="1">
                    <mxGeometry relative="1" as="geometry">
                        <mxPoint x="274" y="176" as="targetPoint"/>
                        <Array as="points">
                            <mxPoint x="274" y="105"/>
                        </Array>
                    </mxGeometry>
                </mxCell>
                <mxCell id="2" value="" style="shape=table;startSize=0;container=1;collapsible=0;childLayout=tableLayout;rounded=1;" parent="1" vertex="1">
                    <mxGeometry x="364" y="60" width="170" height="90" as="geometry"/>
                </mxCell>
                <mxCell id="3" value="" style="shape=partialRectangle;collapsible=0;dropTarget=0;pointerEvents=0;fillColor=none;top=0;left=0;bottom=0;right=0;points=[[0,0.5],[1,0.5]];portConstraint=eastwest;rounded=1;" parent="2" vertex="1">
                    <mxGeometry width="170" height="90" as="geometry"/>
                </mxCell>
                <mxCell id="4" value="&lt;font style=&quot;font-size: 18px&quot;&gt;APP&lt;/font&gt;" style="shape=partialRectangle;html=1;whiteSpace=wrap;connectable=0;overflow=hidden;fillColor=none;top=0;left=0;bottom=0;right=0;rounded=1;" parent="3" vertex="1">
                    <mxGeometry width="170" height="90" as="geometry"/>
                </mxCell>
                <mxCell id="8" style="edgeStyle=orthogonalEdgeStyle;orthogonalLoop=1;jettySize=auto;html=1;entryX=0.487;entryY=0.002;entryDx=0;entryDy=0;entryPerimeter=0;strokeColor=#000000;" parent="1" source="3" target="13" edge="1">
                    <mxGeometry relative="1" as="geometry">
                        <mxPoint x="644" y="220" as="targetPoint"/>
                    </mxGeometry>
                </mxCell>
                <mxCell id="12" value="" style="shape=table;startSize=0;container=1;collapsible=0;childLayout=tableLayout;rounded=1;" parent="1" vertex="1">
                    <mxGeometry x="564" y="180" width="170" height="90" as="geometry"/>
                </mxCell>
                <mxCell id="13" value="" style="shape=partialRectangle;collapsible=0;dropTarget=0;pointerEvents=0;fillColor=none;top=0;left=0;bottom=0;right=0;points=[[0,0.5],[1,0.5]];portConstraint=eastwest;rounded=1;" parent="12" vertex="1">
                    <mxGeometry width="170" height="90" as="geometry"/>
                </mxCell>
                <mxCell id="14" value="&lt;font style=&quot;font-size: 18px&quot;&gt;MAIN&lt;/font&gt;" style="shape=partialRectangle;html=1;whiteSpace=wrap;connectable=0;overflow=hidden;fillColor=none;top=0;left=0;bottom=0;right=0;rounded=1;" parent="13" vertex="1">
                    <mxGeometry width="170" height="90" as="geometry"/>
                </mxCell>
                <mxCell id="30" style="edgeStyle=none;orthogonalLoop=1;jettySize=auto;html=1;strokeColor=#000000;" parent="1" source="15" target="19" edge="1">
                    <mxGeometry relative="1" as="geometry"/>
                </mxCell>
                <mxCell id="15" value="" style="shape=table;startSize=0;container=1;collapsible=0;childLayout=tableLayout;rounded=1;" parent="1" vertex="1">
                    <mxGeometry x="184" y="180" width="170" height="90" as="geometry"/>
                </mxCell>
                <mxCell id="16" value="" style="shape=partialRectangle;collapsible=0;dropTarget=0;pointerEvents=0;fillColor=none;top=0;left=0;bottom=0;right=0;points=[[0,0.5],[1,0.5]];portConstraint=eastwest;rounded=1;" parent="15" vertex="1">
                    <mxGeometry width="170" height="90" as="geometry"/>
                </mxCell>
                <mxCell id="17" value="&lt;font style=&quot;font-size: 18px&quot;&gt;HEADER&lt;/font&gt;" style="shape=partialRectangle;html=1;whiteSpace=wrap;connectable=0;overflow=hidden;fillColor=none;top=0;left=0;bottom=0;right=0;rounded=1;" parent="16" vertex="1">
                    <mxGeometry width="170" height="90" as="geometry"/>
                </mxCell>
                <mxCell id="31" style="edgeStyle=none;orthogonalLoop=1;jettySize=auto;html=1;entryX=1;entryY=0.5;entryDx=0;entryDy=0;strokeColor=#000000;" parent="1" source="18" target="22" edge="1">
                    <mxGeometry relative="1" as="geometry"/>
                </mxCell>
                <mxCell id="18" value="" style="shape=table;startSize=0;container=1;collapsible=0;childLayout=tableLayout;rounded=1;" parent="1" vertex="1">
                    <mxGeometry x="224" y="295" width="90" height="70" as="geometry"/>
                </mxCell>
                <mxCell id="19" value="" style="shape=partialRectangle;collapsible=0;dropTarget=0;pointerEvents=0;fillColor=none;top=0;left=0;bottom=0;right=0;points=[[0,0.5],[1,0.5]];portConstraint=eastwest;rounded=1;" parent="18" vertex="1">
                    <mxGeometry width="90" height="70" as="geometry"/>
                </mxCell>
                <mxCell id="20" value="&lt;font style=&quot;font-size: 18px&quot;&gt;SEARCH&lt;/font&gt;" style="shape=partialRectangle;html=1;whiteSpace=wrap;connectable=0;overflow=hidden;fillColor=none;top=0;left=0;bottom=0;right=0;rounded=1;" parent="19" vertex="1">
                    <mxGeometry width="90" height="70" as="geometry"/>
                </mxCell>
                <mxCell id="32" style="edgeStyle=none;orthogonalLoop=1;jettySize=auto;html=1;strokeColor=#000000;" parent="1" source="21" target="25" edge="1">
                    <mxGeometry relative="1" as="geometry"/>
                </mxCell>
                <mxCell id="21" value="" style="shape=table;startSize=0;container=1;collapsible=0;childLayout=tableLayout;rounded=1;" parent="1" vertex="1">
                    <mxGeometry x="94" y="300" width="100" height="60" as="geometry"/>
                </mxCell>
                <mxCell id="22" value="" style="shape=partialRectangle;collapsible=0;dropTarget=0;pointerEvents=0;fillColor=none;top=0;left=0;bottom=0;right=0;points=[[0,0.5],[1,0.5]];portConstraint=eastwest;rounded=1;" parent="21" vertex="1">
                    <mxGeometry width="100" height="60" as="geometry"/>
                </mxCell>
                <mxCell id="23" value="&lt;font style=&quot;font-size: 18px&quot;&gt;V-MODEL&lt;/font&gt;" style="shape=partialRectangle;html=1;whiteSpace=wrap;connectable=0;overflow=hidden;fillColor=none;top=0;left=0;bottom=0;right=0;rounded=1;" parent="22" vertex="1">
                    <mxGeometry width="100" height="60" as="geometry"/>
                </mxCell>
                <mxCell id="33" style="edgeStyle=none;orthogonalLoop=1;jettySize=auto;html=1;entryX=0.495;entryY=0.026;entryDx=0;entryDy=0;entryPerimeter=0;strokeColor=#000000;" parent="1" source="24" target="28" edge="1">
                    <mxGeometry relative="1" as="geometry"/>
                </mxCell>
                <mxCell id="24" value="" style="shape=table;startSize=0;container=1;collapsible=0;childLayout=tableLayout;rounded=1;" parent="1" vertex="1">
                    <mxGeometry x="94" y="390" width="100" height="60" as="geometry"/>
                </mxCell>
                <mxCell id="25" value="" style="shape=partialRectangle;collapsible=0;dropTarget=0;pointerEvents=0;fillColor=none;top=0;left=0;bottom=0;right=0;points=[[0,0.5],[1,0.5]];portConstraint=eastwest;rounded=1;" parent="24" vertex="1">
                    <mxGeometry width="100" height="60" as="geometry"/>
                </mxCell>
                <mxCell id="26" value="&lt;font style=&quot;font-size: 18px&quot;&gt;chiamata&lt;br&gt;API&lt;/font&gt;" style="shape=partialRectangle;html=1;whiteSpace=wrap;connectable=0;overflow=hidden;fillColor=none;top=0;left=0;bottom=0;right=0;rounded=1;" parent="25" vertex="1">
                    <mxGeometry width="100" height="60" as="geometry"/>
                </mxCell>
                <mxCell id="27" value="" style="shape=table;startSize=0;container=1;collapsible=0;childLayout=tableLayout;rounded=1;" parent="1" vertex="1">
                    <mxGeometry x="94" y="480" width="100" height="70" as="geometry"/>
                </mxCell>
                <mxCell id="28" value="" style="shape=partialRectangle;collapsible=0;dropTarget=0;pointerEvents=0;fillColor=none;top=0;left=0;bottom=0;right=0;points=[[0,0.5],[1,0.5]];portConstraint=eastwest;rounded=1;" parent="27" vertex="1">
                    <mxGeometry width="100" height="70" as="geometry"/>
                </mxCell>
                <mxCell id="29" value="&lt;font style=&quot;font-size: 18px&quot;&gt;ricevo&lt;br&gt;ARREY&lt;/font&gt;" style="shape=partialRectangle;html=1;whiteSpace=wrap;connectable=0;overflow=hidden;fillColor=none;top=0;left=0;bottom=0;right=0;rounded=1;" parent="28" vertex="1">
                    <mxGeometry width="100" height="70" as="geometry"/>
                </mxCell>
                <mxCell id="36" style="edgeStyle=elbowEdgeStyle;orthogonalLoop=1;jettySize=auto;elbow=vertical;html=1;entryX=0.001;entryY=0.259;entryDx=0;entryDy=0;fillColor=#a20025;entryPerimeter=0;strokeColor=#CC0000;jumpSize=6;endSize=15;strokeWidth=2;" parent="1" source="28" target="3" edge="1">
                    <mxGeometry relative="1" as="geometry">
                        <Array as="points">
                            <mxPoint x="40" y="350"/>
                        </Array>
                    </mxGeometry>
                </mxCell>
                <mxCell id="39" value="" style="shape=table;startSize=0;container=1;collapsible=0;childLayout=tableLayout;fillColor=#a20025;strokeColor=#6F0000;fontColor=#ffffff;rounded=1;" parent="1" vertex="1">
                    <mxGeometry x="16" y="72" width="60" height="40" as="geometry"/>
                </mxCell>
                <mxCell id="40" value="" style="shape=partialRectangle;collapsible=0;dropTarget=0;pointerEvents=0;fillColor=none;top=0;left=0;bottom=0;right=0;points=[[0,0.5],[1,0.5]];portConstraint=eastwest;rounded=1;" parent="39" vertex="1">
                    <mxGeometry width="60" height="40" as="geometry"/>
                </mxCell>
                <mxCell id="41" value="Emit" style="shape=partialRectangle;html=1;whiteSpace=wrap;connectable=0;overflow=hidden;fillColor=none;top=0;left=0;bottom=0;right=0;rounded=1;" parent="40" vertex="1">
                    <mxGeometry width="60" height="40" as="geometry"/>
                </mxCell>
                <mxCell id="42" style="edgeStyle=elbowEdgeStyle;orthogonalLoop=1;jettySize=auto;html=1;entryX=1;entryY=0.5;entryDx=0;entryDy=0;fillColor=#60a917;strokeColor=#2D7600;endSize=15;strokeWidth=3;" parent="1" source="3" target="13" edge="1">
                    <mxGeometry relative="1" as="geometry">
                        <Array as="points">
                            <mxPoint x="770" y="80"/>
                        </Array>
                    </mxGeometry>
                </mxCell>
                <mxCell id="43" value="" style="shape=table;startSize=0;container=1;collapsible=0;childLayout=tableLayout;fillColor=#60a917;strokeColor=#2D7600;fontColor=#ffffff;rounded=1;" parent="1" vertex="1">
                    <mxGeometry x="734" y="72" width="60" height="40" as="geometry"/>
                </mxCell>
                <mxCell id="44" value="" style="shape=partialRectangle;collapsible=0;dropTarget=0;pointerEvents=0;fillColor=none;top=0;left=0;bottom=0;right=0;points=[[0,0.5],[1,0.5]];portConstraint=eastwest;rounded=1;" parent="43" vertex="1">
                    <mxGeometry width="60" height="40" as="geometry"/>
                </mxCell>
                <mxCell id="45" value="prop" style="shape=partialRectangle;html=1;whiteSpace=wrap;connectable=0;overflow=hidden;fillColor=none;top=0;left=0;bottom=0;right=0;rounded=1;" parent="44" vertex="1">
                    <mxGeometry width="60" height="40" as="geometry"/>
                </mxCell>
            </root>
        </mxGraphModel>
    </diagram>
</mxfile>